<svg xmlns="http://www.w3.org/2000/svg" xmlns:xlink="http://www.w3.org/1999/xlink" width="1920" height="960" viewBox="0 0 1920 960">
  <defs>
    <style>
      .cls-1 {
        clip-path: url(#clip-cover);
      }

      .cls-2 {
        opacity: 0.102;
      }

      .cls-3 {
        fill: #0d2a47;
      }

      .cls-4, .cls-6, .cls-7 {
        fill: #00ffb0;
      }

      .cls-5 {
        fill: #fff;
      }

      .cls-6 {
        opacity: 0.596;
      }

      .cls-7 {
        opacity: 0.299;
      }

      .cls-8, .cls-9 {
        fill: none;
        stroke: #00ffb0;
      }

      .cls-8 {
        stroke-width: 6px;
      }

      .cls-9 {
        stroke-width: 5px;
      }

      .cls-10 {
        fill: url(#linear-gradient);
      }

      .cls-11 {
        fill: #f5f8f9;
      }

      .cls-12 {
        filter: url(#Rectangle_10);
      }
    </style>
    <filter id="Rectangle_10" x="1003.845" y="8.846" width="865.52" height="865.52" filterUnits="userSpaceOnUse">
      <feOffset dy="15" input="SourceAlpha"/>
      <feGaussianBlur stdDeviation="25" result="blur"/>
      <feFlood flood-color="#0d2a47" flood-opacity="0.102"/>
      <feComposite operator="in" in2="blur"/>
      <feComposite in="SourceGraphic"/>
    </filter>
    <linearGradient id="linear-gradient" x1="0.5" x2="0.5" y2="1" gradientUnits="objectBoundingBox">
      <stop offset="0" stop-color="#234567"/>
      <stop offset="1" stop-color="#0d2a47"/>
    </linearGradient>
    <clipPath id="clip-cover">
      <rect width="1920" height="960"/>
    </clipPath>
  </defs>
  <g id="cover" class="cls-1">
    <rect class="cls-11" width="1920" height="960"/>
    <g id="Group_23" data-name="Group 23" transform="translate(107.765 9.058)">
      <g id="Group_18" data-name="Group 18" class="cls-2" transform="translate(1421.498 -16.779)">
        <path id="Path_13" data-name="Path 13" class="cls-3" d="M221.684,597.034A11.431,11.431,0,1,1,210.255,585.6,11.428,11.428,0,0,1,221.684,597.034Z" transform="translate(-198.822 -585.6)"/>
        <path id="Path_14" data-name="Path 14" class="cls-3" d="M235.689,597.028A11.433,11.433,0,1,1,224.255,585.6,11.437,11.437,0,0,1,235.689,597.028Z" transform="translate(-137.813 -585.6)"/>
        <path id="Path_15" data-name="Path 15" class="cls-3" d="M249.684,597.029A11.431,11.431,0,1,1,238.255,585.6,11.428,11.428,0,0,1,249.684,597.029Z" transform="translate(-76.805 -585.595)"/>
        <path id="Path_16" data-name="Path 16" class="cls-3" d="M263.689,597.028A11.433,11.433,0,1,1,252.261,585.6,11.434,11.434,0,0,1,263.689,597.028Z" transform="translate(-15.796 -585.6)"/>
        <path id="Path_17" data-name="Path 17" class="cls-3" d="M277.688,597.029A11.433,11.433,0,1,1,266.26,585.6,11.428,11.428,0,0,1,277.688,597.029Z" transform="translate(45.208 -585.595)"/>
        <path id="Path_18" data-name="Path 18" class="cls-3" d="M291.683,597.028A11.431,11.431,0,1,1,280.255,585.6,11.426,11.426,0,0,1,291.683,597.028Z" transform="translate(106.22 -585.6)"/>
        <path id="Path_19" data-name="Path 19" class="cls-3" d="M221.684,610.107a11.431,11.431,0,1,1-11.428-11.428A11.429,11.429,0,0,1,221.684,610.107Z" transform="translate(-198.822 -528.605)"/>
        <path id="Path_20" data-name="Path 20" class="cls-3" d="M235.689,610.112a11.433,11.433,0,1,1-11.433-11.434A11.44,11.44,0,0,1,235.689,610.112Z" transform="translate(-137.813 -528.609)"/>
        <path id="Path_21" data-name="Path 21" class="cls-3" d="M249.684,610.107a11.431,11.431,0,1,1-11.428-11.428A11.429,11.429,0,0,1,249.684,610.107Z" transform="translate(-76.805 -528.605)"/>
        <path id="Path_22" data-name="Path 22" class="cls-3" d="M263.689,610.112a11.433,11.433,0,1,1-11.433-11.434A11.441,11.441,0,0,1,263.689,610.112Z" transform="translate(-15.796 -528.609)"/>
        <path id="Path_23" data-name="Path 23" class="cls-3" d="M277.693,610.107a11.436,11.436,0,1,1-11.433-11.428A11.437,11.437,0,0,1,277.693,610.107Z" transform="translate(45.208 -528.605)"/>
        <path id="Path_24" data-name="Path 24" class="cls-3" d="M291.683,610.107a11.431,11.431,0,1,1-11.428-11.428A11.426,11.426,0,0,1,291.683,610.107Z" transform="translate(106.22 -528.605)"/>
        <path id="Path_25" data-name="Path 25" class="cls-3" d="M221.684,623.19a11.431,11.431,0,1,1-11.428-11.433A11.425,11.425,0,0,1,221.684,623.19Z" transform="translate(-198.822 -471.614)"/>
        <path id="Path_26" data-name="Path 26" class="cls-3" d="M235.689,623.185a11.433,11.433,0,1,1-11.433-11.428A11.434,11.434,0,0,1,235.689,623.185Z" transform="translate(-137.813 -471.614)"/>
        <path id="Path_27" data-name="Path 27" class="cls-3" d="M249.689,623.19a11.433,11.433,0,1,1-11.439-11.433A11.433,11.433,0,0,1,249.689,623.19Z" transform="translate(-76.805 -471.614)"/>
        <path id="Path_28" data-name="Path 28" class="cls-3" d="M263.689,623.185a11.433,11.433,0,1,1-11.433-11.428A11.441,11.441,0,0,1,263.689,623.185Z" transform="translate(-15.796 -471.614)"/>
        <path id="Path_29" data-name="Path 29" class="cls-3" d="M277.689,623.181a11.433,11.433,0,1,1-11.433-11.423A11.433,11.433,0,0,1,277.689,623.181Z" transform="translate(45.212 -471.61)"/>
        <path id="Path_30" data-name="Path 30" class="cls-3" d="M291.683,623.185a11.431,11.431,0,1,1-11.428-11.428A11.423,11.423,0,0,1,291.683,623.185Z" transform="translate(106.22 -471.614)"/>
        <path id="Path_31" data-name="Path 31" class="cls-3" d="M221.684,636.269a11.431,11.431,0,1,1-11.428-11.433A11.42,11.42,0,0,1,221.684,636.269Z" transform="translate(-198.822 -414.619)"/>
        <path id="Path_32" data-name="Path 32" class="cls-3" d="M235.689,636.269a11.433,11.433,0,1,1-11.433-11.433A11.438,11.438,0,0,1,235.689,636.269Z" transform="translate(-137.813 -414.624)"/>
        <path id="Path_33" data-name="Path 33" class="cls-3" d="M249.689,636.264a11.433,11.433,0,1,1-11.439-11.428A11.438,11.438,0,0,1,249.689,636.264Z" transform="translate(-76.805 -414.619)"/>
        <path id="Path_34" data-name="Path 34" class="cls-3" d="M263.689,636.269a11.433,11.433,0,1,1-11.433-11.433A11.445,11.445,0,0,1,263.689,636.269Z" transform="translate(-15.796 -414.624)"/>
        <path id="Path_35" data-name="Path 35" class="cls-3" d="M277.689,636.26a11.433,11.433,0,1,1-11.433-11.423A11.429,11.429,0,0,1,277.689,636.26Z" transform="translate(45.212 -414.615)"/>
        <path id="Path_36" data-name="Path 36" class="cls-3" d="M291.683,636.269a11.431,11.431,0,1,1-11.428-11.433A11.437,11.437,0,0,1,291.683,636.269Z" transform="translate(106.22 -414.624)"/>
        <path id="Path_37" data-name="Path 37" class="cls-3" d="M221.684,649.349a11.431,11.431,0,1,1-11.428-11.434A11.42,11.42,0,0,1,221.684,649.349Z" transform="translate(-198.822 -357.624)"/>
        <path id="Path_38" data-name="Path 38" class="cls-3" d="M235.689,649.347a11.433,11.433,0,1,1-11.433-11.433A11.437,11.437,0,0,1,235.689,649.347Z" transform="translate(-137.813 -357.629)"/>
        <path id="Path_39" data-name="Path 39" class="cls-3" d="M249.689,649.343a11.433,11.433,0,1,1-11.439-11.428A11.437,11.437,0,0,1,249.689,649.343Z" transform="translate(-76.805 -357.624)"/>
        <path id="Path_40" data-name="Path 40" class="cls-3" d="M263.689,649.347a11.433,11.433,0,1,1-11.433-11.433A11.444,11.444,0,0,1,263.689,649.347Z" transform="translate(-15.796 -357.629)"/>
        <path id="Path_41" data-name="Path 41" class="cls-3" d="M277.689,649.343a11.433,11.433,0,1,1-11.439-11.428A11.428,11.428,0,0,1,277.689,649.343Z" transform="translate(45.212 -357.624)"/>
        <path id="Path_42" data-name="Path 42" class="cls-3" d="M291.683,649.347a11.431,11.431,0,1,1-11.428-11.433A11.436,11.436,0,0,1,291.683,649.347Z" transform="translate(106.22 -357.629)"/>
        <path id="Path_43" data-name="Path 43" class="cls-3" d="M221.689,662.422a11.433,11.433,0,1,1-11.433-11.428A11.433,11.433,0,0,1,221.689,662.422Z" transform="translate(-198.822 -300.629)"/>
        <path id="Path_44" data-name="Path 44" class="cls-3" d="M235.689,662.427a11.433,11.433,0,1,1-11.433-11.434A11.433,11.433,0,0,1,235.689,662.427Z" transform="translate(-137.813 -300.633)"/>
        <path id="Path_45" data-name="Path 45" class="cls-3" d="M249.689,662.422a11.433,11.433,0,1,1-11.439-11.428A11.428,11.428,0,0,1,249.689,662.422Z" transform="translate(-76.805 -300.629)"/>
        <path id="Path_46" data-name="Path 46" class="cls-3" d="M263.689,662.427a11.433,11.433,0,1,1-11.433-11.434A11.436,11.436,0,0,1,263.689,662.427Z" transform="translate(-15.796 -300.633)"/>
        <path id="Path_47" data-name="Path 47" class="cls-3" d="M277.689,662.427a11.433,11.433,0,1,1-11.433-11.434A11.433,11.433,0,0,1,277.689,662.427Z" transform="translate(45.212 -300.633)"/>
        <path id="Path_48" data-name="Path 48" class="cls-3" d="M291.683,662.427a11.431,11.431,0,1,1-11.428-11.434A11.425,11.425,0,0,1,291.683,662.427Z" transform="translate(106.22 -300.633)"/>
      </g>
      <g id="Group_20" data-name="Group 20" class="cls-2" transform="translate(1191.613 -16.779)">
        <path id="Path_16-2" data-name="Path 16" class="cls-3" d="M263.689,597.028A11.433,11.433,0,1,1,252.261,585.6,11.434,11.434,0,0,1,263.689,597.028Z" transform="translate(-240.822 -585.6)"/>
        <path id="Path_17-2" data-name="Path 17" class="cls-3" d="M277.688,597.029A11.433,11.433,0,1,1,266.26,585.6,11.428,11.428,0,0,1,277.688,597.029Z" transform="translate(-179.818 -585.595)"/>
        <path id="Path_18-2" data-name="Path 18" class="cls-3" d="M291.683,597.028A11.431,11.431,0,1,1,280.255,585.6,11.426,11.426,0,0,1,291.683,597.028Z" transform="translate(-118.805 -585.6)"/>
        <path id="Path_22-2" data-name="Path 22" class="cls-3" d="M263.689,610.112a11.433,11.433,0,1,1-11.433-11.434A11.441,11.441,0,0,1,263.689,610.112Z" transform="translate(-240.822 -528.609)"/>
        <path id="Path_23-2" data-name="Path 23" class="cls-3" d="M277.693,610.107a11.436,11.436,0,1,1-11.433-11.428A11.437,11.437,0,0,1,277.693,610.107Z" transform="translate(-179.818 -528.605)"/>
        <path id="Path_24-2" data-name="Path 24" class="cls-3" d="M291.683,610.107a11.431,11.431,0,1,1-11.428-11.428A11.426,11.426,0,0,1,291.683,610.107Z" transform="translate(-118.805 -528.605)"/>
        <path id="Path_28-2" data-name="Path 28" class="cls-3" d="M263.689,623.185a11.433,11.433,0,1,1-11.433-11.428A11.441,11.441,0,0,1,263.689,623.185Z" transform="translate(-240.822 -471.614)"/>
        <path id="Path_29-2" data-name="Path 29" class="cls-3" d="M277.689,623.181a11.433,11.433,0,1,1-11.433-11.423A11.433,11.433,0,0,1,277.689,623.181Z" transform="translate(-179.814 -471.61)"/>
        <path id="Path_30-2" data-name="Path 30" class="cls-3" d="M291.683,623.185a11.431,11.431,0,1,1-11.428-11.428A11.423,11.423,0,0,1,291.683,623.185Z" transform="translate(-118.805 -471.614)"/>
        <path id="Path_34-2" data-name="Path 34" class="cls-3" d="M263.689,636.269a11.433,11.433,0,1,1-11.433-11.433A11.445,11.445,0,0,1,263.689,636.269Z" transform="translate(-240.822 -414.624)"/>
        <path id="Path_35-2" data-name="Path 35" class="cls-3" d="M277.689,636.26a11.433,11.433,0,1,1-11.433-11.423A11.429,11.429,0,0,1,277.689,636.26Z" transform="translate(-179.814 -414.615)"/>
        <path id="Path_36-2" data-name="Path 36" class="cls-3" d="M291.683,636.269a11.431,11.431,0,1,1-11.428-11.433A11.437,11.437,0,0,1,291.683,636.269Z" transform="translate(-118.805 -414.624)"/>
        <path id="Path_40-2" data-name="Path 40" class="cls-3" d="M263.689,649.347a11.433,11.433,0,1,1-11.433-11.433A11.444,11.444,0,0,1,263.689,649.347Z" transform="translate(-240.822 -357.629)"/>
        <path id="Path_41-2" data-name="Path 41" class="cls-3" d="M277.689,649.343a11.433,11.433,0,1,1-11.439-11.428A11.428,11.428,0,0,1,277.689,649.343Z" transform="translate(-179.814 -357.624)"/>
        <path id="Path_42-2" data-name="Path 42" class="cls-3" d="M291.683,649.347a11.431,11.431,0,1,1-11.428-11.433A11.436,11.436,0,0,1,291.683,649.347Z" transform="translate(-118.805 -357.629)"/>
        <path id="Path_46-2" data-name="Path 46" class="cls-3" d="M263.689,662.427a11.433,11.433,0,1,1-11.433-11.434A11.436,11.436,0,0,1,263.689,662.427Z" transform="translate(-240.822 -300.633)"/>
        <path id="Path_47-2" data-name="Path 47" class="cls-3" d="M277.689,662.427a11.433,11.433,0,1,1-11.433-11.434A11.433,11.433,0,0,1,277.689,662.427Z" transform="translate(-179.814 -300.633)"/>
        <path id="Path_48-2" data-name="Path 48" class="cls-3" d="M291.683,662.427a11.431,11.431,0,1,1-11.428-11.434A11.425,11.425,0,0,1,291.683,662.427Z" transform="translate(-118.805 -300.633)"/>
      </g>
    </g>
    <path id="Path_94" data-name="Path 94" class="cls-3" d="M58.65-106.95q19.35,0,32.1,9.525A42.508,42.508,0,0,1,107.1-71.7H84.9a25.218,25.218,0,0,0-9.975-11.475A29.746,29.746,0,0,0,58.8-87.45a31.041,31.041,0,0,0-16.2,4.2,28.346,28.346,0,0,0-10.95,12,40.446,40.446,0,0,0-3.9,18.3q0,16.65,8.925,25.95T61.05-17.7a29.76,29.76,0,0,0,19.575-6.75Q88.8-31.2,91.2-43.2H55.35V-58.35H108.9v20.4a49.908,49.908,0,0,1-8.775,19.35,47.2,47.2,0,0,1-17.1,14.175A53.144,53.144,0,0,1,58.8.9Q43.2.9,31.275-5.925a47.008,47.008,0,0,1-18.45-19.05Q6.3-37.2,6.3-52.95t6.525-27.975A47.653,47.653,0,0,1,31.2-100.05Q43.05-106.95,58.65-106.95ZM142.2-67.2a34.762,34.762,0,0,1,12.3-12.525A32.676,32.676,0,0,1,171.6-84.3v22.65h-6.15q-23.25,0-23.25,21.6V0H121.05V-83.1H142.2ZM257.7-44.7a40.043,40.043,0,0,1-.75,7.2h-60.9q.45,11.1,6,16.35a19.3,19.3,0,0,0,13.8,5.25,20.022,20.022,0,0,0,12.225-3.6,15.946,15.946,0,0,0,6.225-9.75h22.35a35.756,35.756,0,0,1-7.05,15.6,36.841,36.841,0,0,1-13.875,10.8A44.5,44.5,0,0,1,216.9,1.05a44.233,44.233,0,0,1-21.6-5.175A36.377,36.377,0,0,1,180.6-18.9q-5.25-9.6-5.25-22.65t5.25-22.725A35.782,35.782,0,0,1,195.3-79.05a44.758,44.758,0,0,1,21.6-5.1,43.778,43.778,0,0,1,21.525,5.1,35.946,35.946,0,0,1,14.25,14.025A40.706,40.706,0,0,1,257.7-44.7Zm-21.3-2.1q.45-10.2-5.325-15.45A20.3,20.3,0,0,0,216.9-67.5a20.775,20.775,0,0,0-14.4,5.25Q196.65-57,196.05-46.8Zm110.7,2.1a40.043,40.043,0,0,1-.75,7.2h-60.9q.45,11.1,6,16.35a19.3,19.3,0,0,0,13.8,5.25,20.022,20.022,0,0,0,12.225-3.6,15.946,15.946,0,0,0,6.225-9.75h22.35A35.756,35.756,0,0,1,339-13.65a36.841,36.841,0,0,1-13.875,10.8A44.5,44.5,0,0,1,306.3,1.05a44.233,44.233,0,0,1-21.6-5.175A36.377,36.377,0,0,1,270-18.9q-5.25-9.6-5.25-22.65T270-64.275A35.782,35.782,0,0,1,284.7-79.05a44.758,44.758,0,0,1,21.6-5.1,43.778,43.778,0,0,1,21.525,5.1,35.946,35.946,0,0,1,14.25,14.025A40.706,40.706,0,0,1,347.1-44.7Zm-21.3-2.1q.45-10.2-5.325-15.45A20.3,20.3,0,0,0,306.3-67.5a20.775,20.775,0,0,0-14.4,5.25Q286.05-57,285.45-46.8Zm82.05-37.5q14.4,0,22.95,9.45t8.55,26.55V0h-21V-45.9q0-9.9-5.1-15.375T399.3-66.75q-9,0-14.4,5.85t-5.4,16.8V0H358.35V-83.1H379.5v16.65a26.476,26.476,0,0,1,10.875-13.125A32.327,32.327,0,0,1,407.85-84.3Zm119.1,55.35a28.715,28.715,0,0,1-4.05,14.925,29.09,29.09,0,0,1-12,10.95Q502.95,1.05,491.55,1.05a50.212,50.212,0,0,1-20.1-3.825A33.987,33.987,0,0,1,457.275-13.8,31.8,31.8,0,0,1,451.2-30.6h22.5a17.192,17.192,0,0,0,5.175,10.725Q483.3-15.6,490.65-15.6q6.6,0,10.125-3.525A12.283,12.283,0,0,0,504.3-28.2a11.89,11.89,0,0,0-2.85-8.175,20.8,20.8,0,0,0-7.2-5.175q-4.35-1.95-12-4.5a118.623,118.623,0,0,1-16.2-6.525,29.946,29.946,0,0,1-10.725-9.375Q450.9-68.1,450.9-78q0-13.65,9.825-21.525T486.75-107.4q16.8,0,26.775,8.1T524.85-77.7h-22.8a15.879,15.879,0,0,0-4.8-9.375q-3.9-3.675-10.65-3.675a14.046,14.046,0,0,0-9.45,3.075q-3.6,3.075-3.6,8.925a11.1,11.1,0,0,0,2.775,7.725A21.176,21.176,0,0,0,483.375-66,115.715,115.715,0,0,0,495-61.65a154.556,154.556,0,0,1,16.575,6.75,29.205,29.205,0,0,1,10.875,9.45Q526.95-39.15,526.95-28.95Zm50.25-55.2a46.081,46.081,0,0,1,21.825,5.1A37.327,37.327,0,0,1,614.25-64.275Q619.8-54.6,619.8-41.55T614.25-18.9A37.965,37.965,0,0,1,599.025-4.125,45.538,45.538,0,0,1,577.2,1.05a45.538,45.538,0,0,1-21.825-5.175A37.965,37.965,0,0,1,540.15-18.9q-5.55-9.6-5.55-22.65t5.55-22.725A37.327,37.327,0,0,1,555.375-79.05,46.081,46.081,0,0,1,577.2-84.15Zm0,18.3a20.286,20.286,0,0,0-15,6.225q-6.15,6.225-6.15,18.075t6.15,18.075a20.286,20.286,0,0,0,15,6.225,20.286,20.286,0,0,0,15-6.225q6.15-6.225,6.15-18.075T592.2-59.625A20.286,20.286,0,0,0,577.2-65.85Zm91.2-18.3q16.05,0,26.775,8.7T708.6-51.75H686.25a17.255,17.255,0,0,0-6.15-10.425A18.887,18.887,0,0,0,667.95-66a18.125,18.125,0,0,0-14.025,6.225Q648.3-53.55,648.3-41.55t5.625,18.225A18.125,18.125,0,0,0,667.95-17.1a18.887,18.887,0,0,0,12.15-3.825,17.255,17.255,0,0,0,6.15-10.425H708.6q-2.7,15-13.425,23.7T668.4,1.05a44.233,44.233,0,0,1-21.6-5.175A36.377,36.377,0,0,1,632.1-18.9q-5.25-9.6-5.25-22.65t5.25-22.725A35.782,35.782,0,0,1,646.8-79.05,44.758,44.758,0,0,1,668.4-84.15ZM768.45,0,741-36.3V0H719.85V-111H741v62.4l27.3-34.5h25.05L758.4-41.7,794.25,0Z" transform="translate(150 403)"/>
    <path id="Path_96" data-name="Path 96" class="cls-3" d="M36.84-42.3V0H31.32V-19.56H9.84V0H4.38V-42.3H9.84V-24H31.32V-42.3Zm6.3-.3a3.134,3.134,0,0,1,1.02-2.43,3.852,3.852,0,0,1,2.7-.93,3.852,3.852,0,0,1,2.7.93,3.134,3.134,0,0,1,1.02,2.43,3.134,3.134,0,0,1-1.02,2.43,3.852,3.852,0,0,1-2.7.93,3.852,3.852,0,0,1-2.7-.93A3.134,3.134,0,0,1,43.14-42.6Zm6.42,9.66V0H44.1V-32.94Zm20.76-.42a13.535,13.535,0,0,1,8.13,2.4,12.508,12.508,0,0,1,4.65,6.42v-8.4h5.46V.54a16.717,16.717,0,0,1-1.92,8.1,13.791,13.791,0,0,1-5.4,5.52,16.1,16.1,0,0,1-8.1,1.98q-6.66,0-10.86-3.21a14.165,14.165,0,0,1-5.34-8.67h5.4a9.352,9.352,0,0,0,3.63,5.19,11.621,11.621,0,0,0,6.87,1.89,10.074,10.074,0,0,0,7.35-2.85Q83.1,5.64,83.1.54V-8.4a12.508,12.508,0,0,1-4.65,6.42A13.535,13.535,0,0,1,70.32.42a14.931,14.931,0,0,1-7.8-2.04,14.11,14.11,0,0,1-5.37-5.85,19.447,19.447,0,0,1-1.95-8.97,19.633,19.633,0,0,1,1.95-9,14.071,14.071,0,0,1,5.37-5.88A14.931,14.931,0,0,1,70.32-33.36Zm1.56,4.86a10.575,10.575,0,0,0-8.07,3.21q-3.03,3.21-3.03,8.85t3.03,8.85a10.575,10.575,0,0,0,8.07,3.21,11.2,11.2,0,0,0,5.79-1.5,10.442,10.442,0,0,0,3.99-4.23,13.372,13.372,0,0,0,1.44-6.33,13.552,13.552,0,0,0-1.44-6.36,10.2,10.2,0,0,0-3.99-4.23A11.382,11.382,0,0,0,71.88-28.5Zm41.22-4.98a12.3,12.3,0,0,1,9.3,3.69q3.54,3.69,3.54,10.65V0h-5.46V-18.66q0-4.92-2.52-7.56a9.009,9.009,0,0,0-6.84-2.64,9.352,9.352,0,0,0-7.2,2.91q-2.7,2.91-2.7,8.49V0H95.76V-44.4h5.46v19.26a11.221,11.221,0,0,1,4.47-6.18A12.959,12.959,0,0,1,113.1-33.48Zm38.46,9.18v4.62h-24V-24.3Zm19.56-9.06a13.294,13.294,0,0,1,8.97,2.91,12.257,12.257,0,0,1,4.11,7.83h-5.22a7.559,7.559,0,0,0-2.43-4.83A7.914,7.914,0,0,0,171-29.34a6.847,6.847,0,0,0-4.59,1.41,4.753,4.753,0,0,0-1.65,3.81,3.935,3.935,0,0,0,1.11,2.91,7.122,7.122,0,0,0,2.76,1.68,46.043,46.043,0,0,0,4.53,1.23,44.5,44.5,0,0,1,5.91,1.71,9.258,9.258,0,0,1,3.84,2.79,7.839,7.839,0,0,1,1.59,5.16,8.108,8.108,0,0,1-3.03,6.54A12.217,12.217,0,0,1,173.4.42a15.458,15.458,0,0,1-9.6-2.82,11.248,11.248,0,0,1-4.38-7.86h5.28a6.875,6.875,0,0,0,2.61,4.86,9.417,9.417,0,0,0,6.09,1.86,6.331,6.331,0,0,0,4.41-1.44,4.858,4.858,0,0,0,1.59-3.78,4.135,4.135,0,0,0-1.14-3.06,7.476,7.476,0,0,0-2.82-1.74,41.244,41.244,0,0,0-4.62-1.26,45.087,45.087,0,0,1-5.85-1.68,8.965,8.965,0,0,1-3.72-2.67,7.475,7.475,0,0,1-1.53-4.95,8.286,8.286,0,0,1,3.06-6.69Q165.84-33.36,171.12-33.36Zm37.38,0a14.931,14.931,0,0,1,7.8,2.04,14.071,14.071,0,0,1,5.37,5.88,19.633,19.633,0,0,1,1.95,9,19.447,19.447,0,0,1-1.95,8.97,14.11,14.11,0,0,1-5.37,5.85A14.931,14.931,0,0,1,208.5.42a13.417,13.417,0,0,1-8.13-2.43,12.347,12.347,0,0,1-4.59-6.39v24h-5.46V-32.94h5.46v8.4a12.347,12.347,0,0,1,4.59-6.39A13.417,13.417,0,0,1,208.5-33.36Zm-1.56,4.86a11.428,11.428,0,0,0-5.76,1.47,10.141,10.141,0,0,0-4.02,4.23,13.552,13.552,0,0,0-1.44,6.36,13.372,13.372,0,0,0,1.44,6.33,10.382,10.382,0,0,0,4.02,4.23,11.249,11.249,0,0,0,5.76,1.5,10.649,10.649,0,0,0,8.13-3.21q3.03-3.21,3.03-8.85t-3.03-8.85A10.649,10.649,0,0,0,206.94-28.5Zm52.62,10.2a16.259,16.259,0,0,1-.24,3H232.98q.18,5.64,3.21,8.46a10.475,10.475,0,0,0,7.41,2.82,10.71,10.71,0,0,0,6.63-2.01,8.31,8.31,0,0,0,3.27-5.37h5.82a13.836,13.836,0,0,1-2.67,6.12,13.855,13.855,0,0,1-5.37,4.2,17.784,17.784,0,0,1-7.44,1.5,16.962,16.962,0,0,1-8.4-2.04,14.416,14.416,0,0,1-5.73-5.85,18.512,18.512,0,0,1-2.07-8.97,18.688,18.688,0,0,1,2.07-9,14.37,14.37,0,0,1,5.73-5.88,16.962,16.962,0,0,1,8.4-2.04,16.582,16.582,0,0,1,8.37,2.04,14.046,14.046,0,0,1,5.46,5.46A15.367,15.367,0,0,1,259.56-18.3Zm-5.52.36a11.206,11.206,0,0,0-1.2-6.12,8.773,8.773,0,0,0-3.78-3.66,11.508,11.508,0,0,0-5.22-1.2,10.8,10.8,0,0,0-7.56,2.79q-3.06,2.79-3.3,8.19Zm41.46-.36a16.259,16.259,0,0,1-.24,3H268.92q.18,5.64,3.21,8.46a10.474,10.474,0,0,0,7.41,2.82,10.71,10.71,0,0,0,6.63-2.01,8.31,8.31,0,0,0,3.27-5.37h5.82a13.836,13.836,0,0,1-2.67,6.12,13.854,13.854,0,0,1-5.37,4.2,17.784,17.784,0,0,1-7.44,1.5,16.962,16.962,0,0,1-8.4-2.04,14.416,14.416,0,0,1-5.73-5.85,18.513,18.513,0,0,1-2.07-8.97,18.688,18.688,0,0,1,2.07-9,14.37,14.37,0,0,1,5.73-5.88,16.962,16.962,0,0,1,8.4-2.04,16.582,16.582,0,0,1,8.37,2.04,14.046,14.046,0,0,1,5.46,5.46A15.367,15.367,0,0,1,295.5-18.3Zm-5.52.36a11.206,11.206,0,0,0-1.2-6.12A8.773,8.773,0,0,0,285-27.72a11.508,11.508,0,0,0-5.22-1.2,10.8,10.8,0,0,0-7.56,2.79q-3.06,2.79-3.3,8.19Zm24.66-15.42a13.535,13.535,0,0,1,8.13,2.4,12.508,12.508,0,0,1,4.65,6.42V-44.4h5.46V0h-5.46V-8.4a12.508,12.508,0,0,1-4.65,6.42,13.535,13.535,0,0,1-8.13,2.4,14.931,14.931,0,0,1-7.8-2.04,14.11,14.11,0,0,1-5.37-5.85,19.447,19.447,0,0,1-1.95-8.97,19.634,19.634,0,0,1,1.95-9,14.071,14.071,0,0,1,5.37-5.88A14.931,14.931,0,0,1,314.64-33.36Zm1.56,4.86a10.575,10.575,0,0,0-8.07,3.21q-3.03,3.21-3.03,8.85t3.03,8.85a10.575,10.575,0,0,0,8.07,3.21,11.2,11.2,0,0,0,5.79-1.5,10.443,10.443,0,0,0,3.99-4.23,13.372,13.372,0,0,0,1.44-6.33,13.552,13.552,0,0,0-1.44-6.36,10.2,10.2,0,0,0-3.99-4.23A11.382,11.382,0,0,0,316.2-28.5Zm57.78-13.8v31.44a11.277,11.277,0,0,1-2.97,8.25Q368.04.42,362.7.42q-5.76,0-9.03-3.39t-3.27-9.51h5.46a9.346,9.346,0,0,0,1.62,5.79,5.857,5.857,0,0,0,4.98,2.13,5.567,5.567,0,0,0,4.62-1.8,6.975,6.975,0,0,0,1.44-4.5V-42.3Zm20.46,8.94a13.535,13.535,0,0,1,8.13,2.4,12.508,12.508,0,0,1,4.65,6.42v-8.4h5.46V0h-5.46V-8.4a12.508,12.508,0,0,1-4.65,6.42,13.535,13.535,0,0,1-8.13,2.4,14.931,14.931,0,0,1-7.8-2.04,14.11,14.11,0,0,1-5.37-5.85,19.447,19.447,0,0,1-1.95-8.97,19.634,19.634,0,0,1,1.95-9,14.071,14.071,0,0,1,5.37-5.88A14.931,14.931,0,0,1,394.44-33.36ZM396-28.5a10.575,10.575,0,0,0-8.07,3.21q-3.03,3.21-3.03,8.85t3.03,8.85A10.575,10.575,0,0,0,396-4.38a11.2,11.2,0,0,0,5.79-1.5,10.443,10.443,0,0,0,3.99-4.23,13.372,13.372,0,0,0,1.44-6.33,13.552,13.552,0,0,0-1.44-6.36,10.2,10.2,0,0,0-3.99-4.23A11.382,11.382,0,0,0,396-28.5ZM432.66-5.82l10.2-27.12h5.88L435.84,0h-6.48l-12.9-32.94h5.88Zm33.42-27.54a13.535,13.535,0,0,1,8.13,2.4,12.508,12.508,0,0,1,4.65,6.42v-8.4h5.46V0h-5.46V-8.4a12.508,12.508,0,0,1-4.65,6.42,13.535,13.535,0,0,1-8.13,2.4,14.931,14.931,0,0,1-7.8-2.04,14.11,14.11,0,0,1-5.37-5.85,19.447,19.447,0,0,1-1.95-8.97,19.634,19.634,0,0,1,1.95-9,14.071,14.071,0,0,1,5.37-5.88A14.931,14.931,0,0,1,466.08-33.36Zm1.56,4.86a10.575,10.575,0,0,0-8.07,3.21q-3.03,3.21-3.03,8.85t3.03,8.85a10.575,10.575,0,0,0,8.07,3.21,11.2,11.2,0,0,0,5.79-1.5,10.443,10.443,0,0,0,3.99-4.23,13.372,13.372,0,0,0,1.44-6.33,13.552,13.552,0,0,0-1.44-6.36,10.2,10.2,0,0,0-3.99-4.23A11.382,11.382,0,0,0,467.64-28.5Zm50.64,17.52a11.262,11.262,0,0,1-1.44,5.58,10.84,10.84,0,0,1-4.38,4.2A14.875,14.875,0,0,1,505.2.42a17.432,17.432,0,0,1-7.47-1.53,13.29,13.29,0,0,1-5.22-4.2,11.884,11.884,0,0,1-2.25-6.09h5.82a8.23,8.23,0,0,0,1.23,3.51,8.17,8.17,0,0,0,3,2.82,9.378,9.378,0,0,0,4.71,1.11,7.471,7.471,0,0,0,5.52-1.92,6.661,6.661,0,0,0,1.92-4.92,6.342,6.342,0,0,0-1.35-4.2,9.565,9.565,0,0,0-3.33-2.55,45.256,45.256,0,0,0-5.4-2.01,54.611,54.611,0,0,1-6.45-2.49,11.012,11.012,0,0,1-4.14-3.51,10.237,10.237,0,0,1-1.71-6.18,10.674,10.674,0,0,1,1.59-5.82,10.423,10.423,0,0,1,4.56-3.9,16.449,16.449,0,0,1,6.99-1.38q6.24,0,9.9,3.03a11.594,11.594,0,0,1,4.26,7.71H511.5a7.953,7.953,0,0,0-2.58-4.44,8.124,8.124,0,0,0-5.7-1.92,7.8,7.8,0,0,0-5.28,1.71,6.038,6.038,0,0,0-1.98,4.83,5.98,5.98,0,0,0,1.29,3.99,8.979,8.979,0,0,0,3.21,2.4,51.669,51.669,0,0,0,5.28,1.95,53.551,53.551,0,0,1,6.57,2.52,11.1,11.1,0,0,1,4.23,3.63A10.852,10.852,0,0,1,518.28-10.98Zm20.4-22.38A16.03,16.03,0,0,1,549.12-30a14.233,14.233,0,0,1,5.1,9h-5.76a8.421,8.421,0,0,0-3.27-5.55,10.709,10.709,0,0,0-6.63-2.01,10.605,10.605,0,0,0-5.25,1.32,9.6,9.6,0,0,0-3.81,4.05,14.342,14.342,0,0,0-1.44,6.75,14.342,14.342,0,0,0,1.44,6.75,9.6,9.6,0,0,0,3.81,4.05,10.605,10.605,0,0,0,5.25,1.32,10.6,10.6,0,0,0,6.63-2.04,8.535,8.535,0,0,0,3.27-5.58h5.76a14.153,14.153,0,0,1-5.1,9.03A16.126,16.126,0,0,1,538.68.42a16.962,16.962,0,0,1-8.4-2.04,14.416,14.416,0,0,1-5.73-5.85,18.512,18.512,0,0,1-2.07-8.97,18.688,18.688,0,0,1,2.07-9,14.37,14.37,0,0,1,5.73-5.88A16.962,16.962,0,0,1,538.68-33.36Zm26.64,7.08a12.115,12.115,0,0,1,4.74-5.31,14.088,14.088,0,0,1,7.44-1.89v5.94h-1.68a11.666,11.666,0,0,0-7.56,2.37q-2.94,2.37-2.94,7.83V0h-5.46V-32.94h5.46ZM580.44-42.6a3.134,3.134,0,0,1,1.02-2.43,3.852,3.852,0,0,1,2.7-.93,3.852,3.852,0,0,1,2.7.93,3.134,3.134,0,0,1,1.02,2.43,3.134,3.134,0,0,1-1.02,2.43,3.852,3.852,0,0,1-2.7.93,3.852,3.852,0,0,1-2.7-.93A3.134,3.134,0,0,1,580.44-42.6Zm6.42,9.66V0H581.4V-32.94Zm25.44-.42a14.931,14.931,0,0,1,7.8,2.04,14.07,14.07,0,0,1,5.37,5.88,19.634,19.634,0,0,1,1.95,9,19.447,19.447,0,0,1-1.95,8.97,14.109,14.109,0,0,1-5.37,5.85A14.931,14.931,0,0,1,612.3.42a13.417,13.417,0,0,1-8.13-2.43,12.346,12.346,0,0,1-4.59-6.39v24h-5.46V-32.94h5.46v8.4a12.346,12.346,0,0,1,4.59-6.39A13.417,13.417,0,0,1,612.3-33.36Zm-1.56,4.86a11.428,11.428,0,0,0-5.76,1.47,10.141,10.141,0,0,0-4.02,4.23,13.553,13.553,0,0,0-1.44,6.36,13.372,13.372,0,0,0,1.44,6.33,10.382,10.382,0,0,0,4.02,4.23,11.249,11.249,0,0,0,5.76,1.5,10.649,10.649,0,0,0,8.13-3.21q3.03-3.21,3.03-8.85t-3.03-8.85A10.649,10.649,0,0,0,610.74-28.5ZM648.78-4.8V0H644.7q-5.04,0-7.53-2.4t-2.49-8.04V-28.2h-4.92v-4.74h4.92v-8.22h5.52v8.22h8.52v4.74H640.2v17.88q0,3.18,1.17,4.35t4.05,1.17Zm31.98-28.56a13.535,13.535,0,0,1,8.13,2.4,12.508,12.508,0,0,1,4.65,6.42v-8.4H699V0h-5.46V-8.4a12.508,12.508,0,0,1-4.65,6.42,13.535,13.535,0,0,1-8.13,2.4,14.931,14.931,0,0,1-7.8-2.04,14.109,14.109,0,0,1-5.37-5.85,19.447,19.447,0,0,1-1.95-8.97,19.634,19.634,0,0,1,1.95-9,14.07,14.07,0,0,1,5.37-5.88A14.931,14.931,0,0,1,680.76-33.36Zm1.56,4.86a10.575,10.575,0,0,0-8.07,3.21q-3.03,3.21-3.03,8.85t3.03,8.85a10.575,10.575,0,0,0,8.07,3.21,11.2,11.2,0,0,0,5.79-1.5,10.442,10.442,0,0,0,3.99-4.23,13.371,13.371,0,0,0,1.44-6.33,13.552,13.552,0,0,0-1.44-6.36,10.2,10.2,0,0,0-3.99-4.23A11.382,11.382,0,0,0,682.32-28.5Zm41.22-4.98a12.3,12.3,0,0,1,9.3,3.69q3.54,3.69,3.54,10.65V0h-5.46V-18.66q0-4.92-2.52-7.56a9.009,9.009,0,0,0-6.84-2.64,9.352,9.352,0,0,0-7.2,2.91q-2.7,2.91-2.7,8.49V0H706.2V-32.94h5.46v7.8a11.221,11.221,0,0,1,4.47-6.18A12.959,12.959,0,0,1,723.54-33.48Zm18.78-9.12a3.134,3.134,0,0,1,1.02-2.43,3.852,3.852,0,0,1,2.7-.93,3.852,3.852,0,0,1,2.7.93,3.134,3.134,0,0,1,1.02,2.43,3.134,3.134,0,0,1-1.02,2.43,3.852,3.852,0,0,1-2.7.93,3.852,3.852,0,0,1-2.7-.93A3.134,3.134,0,0,1,742.32-42.6Zm6.42,9.66V0h-5.46V-32.94Zm47.76-.54a12.2,12.2,0,0,1,9.27,3.69q3.51,3.69,3.51,10.65V0h-5.46V-18.66q0-4.86-2.37-7.44a8.4,8.4,0,0,0-6.51-2.58,8.945,8.945,0,0,0-6.93,2.85q-2.61,2.85-2.61,8.37V0h-5.46V-18.66q0-4.86-2.4-7.44a8.422,8.422,0,0,0-6.48-2.58,9.017,9.017,0,0,0-6.99,2.85q-2.61,2.85-2.61,8.37V0H756V-32.94h5.46v7.5a10.7,10.7,0,0,1,4.29-5.97,12.475,12.475,0,0,1,7.11-2.07,12.526,12.526,0,0,1,7.29,2.13,11.59,11.59,0,0,1,4.41,6.27,11.907,11.907,0,0,1,4.62-6.21A12.771,12.771,0,0,1,796.5-33.48Zm33.24.12a13.535,13.535,0,0,1,8.13,2.4,12.508,12.508,0,0,1,4.65,6.42v-8.4h5.46V0h-5.46V-8.4a12.508,12.508,0,0,1-4.65,6.42,13.535,13.535,0,0,1-8.13,2.4,14.931,14.931,0,0,1-7.8-2.04,14.109,14.109,0,0,1-5.37-5.85,19.447,19.447,0,0,1-1.95-8.97,19.634,19.634,0,0,1,1.95-9,14.07,14.07,0,0,1,5.37-5.88A14.931,14.931,0,0,1,829.74-33.36Zm1.56,4.86a10.575,10.575,0,0,0-8.07,3.21q-3.03,3.21-3.03,8.85t3.03,8.85a10.575,10.575,0,0,0,8.07,3.21,11.2,11.2,0,0,0,5.79-1.5,10.442,10.442,0,0,0,3.99-4.23,13.371,13.371,0,0,0,1.44-6.33,13.552,13.552,0,0,0-1.44-6.36,10.2,10.2,0,0,0-3.99-4.23A11.382,11.382,0,0,0,831.3-28.5ZM870.9-4.8V0h-4.08q-5.04,0-7.53-2.4t-2.49-8.04V-28.2h-4.92v-4.74h4.92v-8.22h5.52v8.22h8.52v4.74h-8.52v17.88q0,3.18,1.17,4.35t4.05,1.17Zm4.2-37.8a3.134,3.134,0,0,1,1.02-2.43,3.852,3.852,0,0,1,2.7-.93,3.852,3.852,0,0,1,2.7.93,3.134,3.134,0,0,1,1.02,2.43,3.134,3.134,0,0,1-1.02,2.43,3.852,3.852,0,0,1-2.7.93,3.852,3.852,0,0,1-2.7-.93A3.134,3.134,0,0,1,875.1-42.6Zm6.42,9.66V0h-5.46V-32.94Zm22.2-.42a17.476,17.476,0,0,1,8.49,2.04,14.6,14.6,0,0,1,5.88,5.88,18.26,18.26,0,0,1,2.13,9,18.089,18.089,0,0,1-2.13,8.97,14.648,14.648,0,0,1-5.88,5.85A17.476,17.476,0,0,1,903.72.42a17.476,17.476,0,0,1-8.49-2.04,14.845,14.845,0,0,1-5.91-5.85,17.886,17.886,0,0,1-2.16-8.97,18.055,18.055,0,0,1,2.16-9,14.794,14.794,0,0,1,5.91-5.88A17.476,17.476,0,0,1,903.72-33.36Zm0,4.8a11.413,11.413,0,0,0-5.43,1.32,9.924,9.924,0,0,0-4.02,4.05,13.641,13.641,0,0,0-1.53,6.75,13.507,13.507,0,0,0,1.53,6.69,9.924,9.924,0,0,0,4.02,4.05,11.413,11.413,0,0,0,5.43,1.32,11.413,11.413,0,0,0,5.43-1.32,9.924,9.924,0,0,0,4.02-4.05,13.507,13.507,0,0,0,1.53-6.69,13.641,13.641,0,0,0-1.53-6.75,9.924,9.924,0,0,0-4.02-4.05A11.413,11.413,0,0,0,903.72-28.56Zm39.48-4.92a12.3,12.3,0,0,1,9.3,3.69q3.54,3.69,3.54,10.65V0h-5.46V-18.66q0-4.92-2.52-7.56a9.009,9.009,0,0,0-6.84-2.64,9.352,9.352,0,0,0-7.2,2.91q-2.7,2.91-2.7,8.49V0h-5.46V-32.94h5.46v7.8a11.221,11.221,0,0,1,4.47-6.18A12.959,12.959,0,0,1,943.2-33.48Zm30.06.12a13.294,13.294,0,0,1,8.97,2.91,12.257,12.257,0,0,1,4.11,7.83h-5.22a7.559,7.559,0,0,0-2.43-4.83,7.914,7.914,0,0,0-5.55-1.89,6.847,6.847,0,0,0-4.59,1.41,4.753,4.753,0,0,0-1.65,3.81,3.935,3.935,0,0,0,1.11,2.91,7.122,7.122,0,0,0,2.76,1.68,46.042,46.042,0,0,0,4.53,1.23,44.5,44.5,0,0,1,5.91,1.71,9.257,9.257,0,0,1,3.84,2.79,7.839,7.839,0,0,1,1.59,5.16,8.108,8.108,0,0,1-3.03,6.54A12.217,12.217,0,0,1,975.54.42a15.458,15.458,0,0,1-9.6-2.82,11.248,11.248,0,0,1-4.38-7.86h5.28a6.875,6.875,0,0,0,2.61,4.86,9.417,9.417,0,0,0,6.09,1.86,6.331,6.331,0,0,0,4.41-1.44,4.858,4.858,0,0,0,1.59-3.78,4.135,4.135,0,0,0-1.14-3.06,7.476,7.476,0,0,0-2.82-1.74,41.242,41.242,0,0,0-4.62-1.26,45.088,45.088,0,0,1-5.85-1.68,8.964,8.964,0,0,1-3.72-2.67,7.475,7.475,0,0,1-1.53-4.95,8.286,8.286,0,0,1,3.06-6.69Q967.98-33.36,973.26-33.36ZM996.48-6.42V0h-6.6V-6.42Z" transform="translate(150 817)"/>
    <path id="Path_95" data-name="Path 95" class="cls-3" d="M99.3,0H78.15L30.75-72V0H9.6V-105.9H30.75l47.4,72.6v-72.6H99.3Zm94.95-83.1V0H173.1V-16.8A26.476,26.476,0,0,1,162.225-3.675,32.327,32.327,0,0,1,144.75,1.05q-14.4,0-22.95-9.45t-8.55-26.4V-83.1h21v45.9q0,9.9,5.1,15.375t13.8,5.475q9.15,0,14.55-5.85T173.1-39V-83.1Zm66,83.1-18.9-26.7L225.45,0H202.2l27.45-43.35L201.6-83.1h23.7l18.45,26.25,15.9-26.25H282.9L255-40.95,283.95,0ZM335.4-18.15V0H324.3q-13.95,0-21.375-6.75T295.5-29.25v-36H283.95V-83.1H295.5v-20.55h21.15V-83.1h18.6v17.85h-18.6v36.3q0,6,2.4,8.4t8.1,2.4Z" transform="translate(150 273)"/>
    <rect id="Rectangle_1" data-name="Rectangle 1" class="cls-4" width="210" height="86" rx="43" transform="translate(150 532)"/>
    <rect id="Rectangle_22" data-name="Rectangle 22" class="cls-4" width="248" height="86" rx="43" transform="translate(724 532)"/>
    <rect id="Rectangle_20" data-name="Rectangle 20" class="cls-4" width="314" height="86" rx="43" transform="translate(385 532)"/>
    <path id="Path_93" data-name="Path 93" class="cls-5" d="M-40.346-17.121l-1.17,5.343h5.031v4.992h-6.084L-44.012,0h-5.109l1.443-6.786h-7.176L-56.3,0h-5.109l1.443-6.786h-5.85v-4.992h6.9l1.17-5.343h-5.694v-4.992h6.747l1.443-6.747h5.109l-1.443,6.747H-44.4l1.443-6.747h5.109l-1.443,6.747h5.187v4.992Zm-5.109,0h-7.176l-1.17,5.343h7.176Zm26.481-10.686a13.56,13.56,0,0,1,8.346,2.476,11.052,11.052,0,0,1,4.251,6.688h-5.772a6.557,6.557,0,0,0-2.593-2.983,7.734,7.734,0,0,0-4.193-1.111,8.071,8.071,0,0,0-4.212,1.092,7.37,7.37,0,0,0-2.847,3.12,10.516,10.516,0,0,0-1.014,4.758,9.346,9.346,0,0,0,2.32,6.747A8.37,8.37,0,0,0-18.349-4.6a7.738,7.738,0,0,0,5.09-1.755,8.152,8.152,0,0,0,2.749-4.875h-9.321v-3.939H-5.908v5.3A12.976,12.976,0,0,1-8.19-4.836a12.272,12.272,0,0,1-4.446,3.685,13.817,13.817,0,0,1-6.3,1.385,14.152,14.152,0,0,1-7.156-1.775,12.222,12.222,0,0,1-4.8-4.953,15.208,15.208,0,0,1-1.7-7.273,15.208,15.208,0,0,1,1.7-7.274,12.39,12.39,0,0,1,4.778-4.972A13.924,13.924,0,0,1-18.973-27.807ZM16.165-7.527a7.466,7.466,0,0,1-1.053,3.88A7.563,7.563,0,0,1,11.992-.8,10.817,10.817,0,0,1,6.961.273,13.055,13.055,0,0,1,1.735-.722,8.836,8.836,0,0,1-1.95-3.588,8.269,8.269,0,0,1-3.53-7.956H2.32A4.47,4.47,0,0,0,3.666-5.167,4.22,4.22,0,0,0,6.727-4.056,3.563,3.563,0,0,0,9.36-4.972a3.194,3.194,0,0,0,.917-2.359,3.091,3.091,0,0,0-.741-2.126A5.407,5.407,0,0,0,7.663-10.8q-1.131-.507-3.12-1.17a30.842,30.842,0,0,1-4.212-1.7,7.786,7.786,0,0,1-2.789-2.438A6.983,6.983,0,0,1-3.608-20.28a6.785,6.785,0,0,1,2.555-5.6,10.5,10.5,0,0,1,6.766-2.048,10.717,10.717,0,0,1,6.962,2.106A7.949,7.949,0,0,1,15.619-20.2H9.691a4.129,4.129,0,0,0-1.248-2.437A3.875,3.875,0,0,0,5.674-23.6a3.652,3.652,0,0,0-2.457.8,2.883,2.883,0,0,0-.936,2.321A2.885,2.885,0,0,0,3-18.467,5.506,5.506,0,0,0,4.836-17.16a30.086,30.086,0,0,0,3.023,1.131,40.185,40.185,0,0,1,4.309,1.755A7.593,7.593,0,0,1,15-11.817,7.22,7.22,0,0,1,16.165-7.527ZM36.016-5.538H24.979L23.029,0H17.218l10.14-27.222h6.279L43.738,0H37.927ZM34.534-9.711,30.478-21.333,26.422-9.711Zm16.692-.507V0h-5.5V-27.534H55.75q4.875,0,7.351,2.34a8.327,8.327,0,0,1,2.477,6.357,8.1,8.1,0,0,1-2.555,6.279q-2.554,2.34-7.273,2.34Zm3.939-4.407Q60-14.625,60-18.837A4.19,4.19,0,0,0,58.87-22a5.215,5.215,0,0,0-3.705-1.092H51.226v8.463Z" transform="translate(255 589)"/>
    <path id="Path_91" data-name="Path 91" class="cls-5" d="M-63.921-17.121l-1.17,5.343h5.031v4.992h-6.084L-67.587,0H-72.7l1.443-6.786h-7.176L-79.872,0h-5.109l1.443-6.786h-5.85v-4.992h6.9l1.17-5.343h-5.694v-4.992h6.747l1.443-6.747h5.109l-1.443,6.747h7.176l1.443-6.747h5.109l-1.443,6.747h5.187v4.992Zm-5.109,0h-7.176l-1.17,5.343H-70.2ZM-49.8-4.212h9.243V0H-55.3V-27.534h5.5ZM-32.76-27.534V0h-5.5V-27.534ZM-13.377-14.2a6.68,6.68,0,0,1,4,2.359,6.7,6.7,0,0,1,1.5,4.349A6.87,6.87,0,0,1-10.2-2.009Q-12.519,0-16.926,0H-28.743V-27.534H-17.16A9.9,9.9,0,0,1-10.745-25.7,6.276,6.276,0,0,1-8.5-20.553a6.419,6.419,0,0,1-1.345,4.212A6.258,6.258,0,0,1-13.377-14.2Zm-9.867-1.794h4.953a4.712,4.712,0,0,0,3.139-.917,3.272,3.272,0,0,0,1.073-2.632,3.362,3.362,0,0,0-1.053-2.652,4.765,4.765,0,0,0-3.237-.936h-4.875Zm5.226,11.5a5.181,5.181,0,0,0,3.354-.956,3.391,3.391,0,0,0,1.17-2.788,3.48,3.48,0,0,0-1.19-2.827,5.119,5.119,0,0,0-3.374-.995h-5.187v7.566ZM9.36,0,2.925-10.725H.507V0h-5.5V-27.534H5.5q4.8,0,7.312,2.34a8.021,8.021,0,0,1,2.515,6.162,7.945,7.945,0,0,1-1.735,5.226A8.564,8.564,0,0,1,8.58-11L15.444,0ZM.507-14.508H5.031q4.719,0,4.719-4.173a4.11,4.11,0,0,0-1.151-3.1,4.974,4.974,0,0,0-3.568-1.111H.507Zm34.32,8.97H23.79L21.84,0H16.029l10.14-27.222h6.279L42.549,0H36.738ZM33.345-9.711,29.289-21.333,25.233-9.711ZM58.89,0,52.455-10.725H50.037V0h-5.5V-27.534H55.029q4.8,0,7.313,2.34a8.021,8.021,0,0,1,2.516,6.162,7.945,7.945,0,0,1-1.736,5.226A8.564,8.564,0,0,1,58.11-11L64.974,0ZM50.037-14.508h4.524q4.719,0,4.719-4.173a4.11,4.11,0,0,0-1.15-3.1,4.974,4.974,0,0,0-3.569-1.111H50.037ZM89.778-27.534l-9.321,17.9V0H74.919V-9.633l-9.36-17.9h6.318l5.85,12.051,5.85-12.051Z" transform="translate(848 589)"/>
    <path id="Path_92" data-name="Path 92" class="cls-5" d="M-95.882-17.121l-1.17,5.343h5.031v4.992H-98.1L-99.548,0h-5.109l1.443-6.786h-7.176L-111.832,0h-5.109l1.443-6.786h-5.85v-4.992h6.9l1.17-5.343h-5.694v-4.992h6.747l1.443-6.747h5.109l-1.443,6.747h7.176l1.443-6.747h5.109l-1.443,6.747h5.187v4.992Zm-5.109,0h-7.176l-1.17,5.343h7.176Zm30.5,11.583H-81.529L-83.479,0H-89.29l10.14-27.222h6.279L-62.771,0h-5.811Zm-1.482-4.173-4.056-11.622L-80.087-9.711ZM-37.459,0h-5.5L-55.282-18.72V0h-5.5V-27.534h5.5L-42.958-8.658V-27.534h5.5Zm9.516-27.534V0h-5.5V-27.534Zm33.7.312V0H.292V-18.993L-6.689,0h-4.758l-6.981-18.915V0h-5.5V-27.222h6.669L-8.99-6.747-.878-27.222ZM26.539-5.538H15.5L13.552,0H7.741l10.14-27.222H24.16L34.261,0H28.45ZM25.057-9.711,21-21.333,16.945-9.711ZM54.971-27.534v4.368H47.366V0h-5.5V-23.166H34.3v-4.368Zm7.566,0V0h-5.5V-27.534Zm16.926-.39a13.858,13.858,0,0,1,7,1.794,13.014,13.014,0,0,1,4.953,5.012,14.553,14.553,0,0,1,1.813,7.274,14.662,14.662,0,0,1-1.813,7.293,12.977,12.977,0,0,1-4.953,5.031,13.858,13.858,0,0,1-7,1.794,13.858,13.858,0,0,1-7-1.794,12.977,12.977,0,0,1-4.953-5.031A14.662,14.662,0,0,1,65.7-13.845a14.553,14.553,0,0,1,1.813-7.274,13.014,13.014,0,0,1,4.953-5.012A13.858,13.858,0,0,1,79.462-27.924Zm0,5.07a8.147,8.147,0,0,0-4.251,1.092,7.471,7.471,0,0,0-2.867,3.14,10.471,10.471,0,0,0-1.034,4.778,10.471,10.471,0,0,0,1.034,4.777,7.471,7.471,0,0,0,2.867,3.14,8.147,8.147,0,0,0,4.251,1.092,8.147,8.147,0,0,0,4.251-1.092,7.471,7.471,0,0,0,2.867-3.14,10.471,10.471,0,0,0,1.034-4.777,10.471,10.471,0,0,0-1.034-4.778,7.471,7.471,0,0,0-2.867-3.14A8.147,8.147,0,0,0,79.462-22.854ZM119.711,0h-5.5L101.888-18.72V0h-5.5V-27.534h5.5L114.212-8.658V-27.534h5.5Z" transform="translate(542 589)"/>
    <path id="Polygon_17" data-name="Polygon 17" class="cls-4" d="M48.6,14.3a10,10,0,0,1,17.152,0L105.263,80.2a10,10,0,0,1-8.576,15.143H17.657A10,10,0,0,1,9.081,80.2Z" transform="translate(1680.447 746.162)"/>
    <g id="Group_24" data-name="Group 24" transform="matrix(0.966, -0.259, 0.259, 0.966, 397.197, 218.421)">
      <g class="cls-12" transform="matrix(0.97, 0.26, -0.26, 0.97, -327.13, -313.78)">
        <rect id="Rectangle_10-2" data-name="Rectangle 10" class="cls-5" width="584.219" height="584.219" rx="200" transform="matrix(0.97, -0.26, 0.26, 0.97, 1078.85, 220.05)"/>
      </g>
      <path id="Path_68" data-name="Path 68" class="cls-5" d="M-301.566,343.583a11.155,11.155,0,0,0,7.829-3.243,11.133,11.133,0,0,0,3.243-7.816,11.148,11.148,0,0,0-3.244-7.829,11.184,11.184,0,0,0-7.828-3.229,11.177,11.177,0,0,0-7.816,3.232,11.176,11.176,0,0,0-3.229,7.827,11.18,11.18,0,0,0,3.23,7.816A11.13,11.13,0,0,0-301.566,343.583Z" transform="translate(1210.765 32.586)"/>
      <path id="Path_69" data-name="Path 69" class="cls-5" d="M-328.553,343.583a11.138,11.138,0,0,0,7.815-3.243,11.133,11.133,0,0,0,3.243-7.816,11.148,11.148,0,0,0-3.244-7.829,11.166,11.166,0,0,0-7.814-3.229,11.2,11.2,0,0,0-7.829,3.232,11.176,11.176,0,0,0-3.229,7.827,11.132,11.132,0,0,0,3.23,7.816A11.147,11.147,0,0,0-328.553,343.583Z" transform="translate(1200.443 32.586)"/>
      <path id="Path_70" data-name="Path 70" class="cls-5" d="M-355.553,343.583a11.139,11.139,0,0,0,7.817-3.244,11.172,11.172,0,0,0,3.242-7.814,11.194,11.194,0,0,0-3.244-7.829,11.166,11.166,0,0,0-7.814-3.229,11.2,11.2,0,0,0-7.829,3.232,11.176,11.176,0,0,0-3.229,7.827,11.132,11.132,0,0,0,3.23,7.816A11.152,11.152,0,0,0-355.553,343.583Z" transform="translate(1190.121 32.586)"/>
    </g>
    <g id="Group_28" data-name="Group 28" transform="translate(3.264 4.115)">
      <path id="Polygon_25" data-name="Polygon 25" class="cls-4" d="M23.394,7.153a5,5,0,0,1,8.577,0L50.826,38.6a5,5,0,0,1-4.288,7.571H8.827A5,5,0,0,1,4.539,38.6Z" transform="translate(590.713 197.965) rotate(90)"/>
      <path id="Polygon_27" data-name="Polygon 27" class="cls-6" d="M23.394,7.153a5,5,0,0,1,8.577,0L50.826,38.6a5,5,0,0,1-4.288,7.571H8.827A5,5,0,0,1,4.539,38.6Z" transform="translate(639.676 197.965) rotate(90)"/>
      <path id="Polygon_28" data-name="Polygon 28" class="cls-7" d="M23.394,7.153a5,5,0,0,1,8.577,0L50.826,38.6a5,5,0,0,1-4.288,7.571H8.827A5,5,0,0,1,4.539,38.6Z" transform="translate(688.639 197.965) rotate(90)"/>
    </g>
    <path id="Path_49" data-name="Path 49" class="cls-8" d="M0,1.98S306.79-1.6,400.265.367" transform="matrix(1, -0.017, 0.017, 1, 111.009, 838.465)"/>
    <path id="Path_50" data-name="Path 50" class="cls-9" d="M0,0S306.775,8.2,400.186,7.645" transform="translate(521.156 839.49) rotate(177)"/>
    <path id="Path_90" data-name="Path 90" class="cls-10" d="M277.057,121.09a9.1,9.1,0,0,0-7.754-4.433h-64.77V9.725A9.618,9.618,0,0,0,197.2.218a9.11,9.11,0,0,0-10.382,5.56L112.8,180.758a10.124,10.124,0,0,0,.7,9.235,9.148,9.148,0,0,0,7.754,4.433h64.77V301.358a9.618,9.618,0,0,0,7.328,9.507,9.407,9.407,0,0,0,1.925.214,9.247,9.247,0,0,0,8.457-5.774l74.023-174.98A10.124,10.124,0,0,0,277.057,121.09Z" transform="matrix(0.966, 0.259, -0.259, 0.966, 1288.63, 226.222)"/>
  </g>
</svg>
